# xmcd
#
# Track frame offsets: 
#        150
#        30146
#        53109
#        62587
#        101956
#        118756
#        155695
#        190211
#        211111
#        225532
#
# Disc length: 3345 seconds
#
# Revision: 2
# Processed by: cddbd v1.5.2PL0 Copyright (c) Steve Scherf et al.
# Submitted via: ExactAudioCopy v0.99pb3
#
DISCID=7f0d0f0a
DTITLE=Paul Bley - Solo in Mondsee
DYEAR=2007
DGENRE=Jazz
TTITLE0=Mondsee Variations: I
TTITLE1=Mondsee Variations: II
TTITLE2=Mondsee Variations: III
TTITLE3=Mondsee Variations: IV
TTITLE4=Mondsee Variations: V
TTITLE5=Mondsee Variations: VI
TTITLE6=Mondsee Variations: VII
TTITLE7=Mondsee Variations: VIII
TTITLE8=Mondsee Variations: IX
TTITLE9=Mondsee Variations: X
EXTD=YEAR: 2001
EXTT0=
EXTT1=
EXTT2=
EXTT3=
EXTT4=
EXTT5=
EXTT6=
EXTT7=
EXTT8=
EXTT9=
PLAYORDER=
